<?xml version="1.0" encoding="UTF-8"?>
<svg width="24px" height="24px" viewBox="0 0 24 24" version="1.1" xmlns="http://www.w3.org/2000/svg" xmlns:xlink="http://www.w3.org/1999/xlink">
    <!-- Generator: Sketch 55.1 (78136) - https://sketchapp.com -->
    <title>Group 12</title>
    <desc>Created with Sketch.</desc>
    <g id="Page-1" stroke="none" stroke-width="1" fill="none" fill-rule="evenodd">
        <g id="Group-12">
            <rect id="Rectangle" fill="#FFFFFF" x="0" y="0" width="24" height="24"></rect>
            <path d="M16.334139,9.66170962 L14.7570997,14.6420706 C14.7570997,14.2606425 13.6694864,6 13.6694864,6 C11.1679758,6 9.84108761,7.77636508 9.14501511,9.66170962 L7.21993958,14.6529686 C7.21993958,14.2933364 6.94803625,9.7053014 6.94803625,9.7053014 C6.75584948,7.64960507 5.0599172,6.06262418 3,6.01089795 L5.04471299,18.5217391 C7.65498489,18.5217391 9.06888218,16.745374 9.79758308,14.8600295 L11.429003,10.6098309 C11.429003,10.784198 12.5166163,18.5217391 12.5166163,18.5217391 C14.7069558,18.5189171 16.6431178,17.0947477 17.3021148,15.0017028 L21,6 C18.3897281,6 17.0193353,7.77636508 16.3232628,9.66170962 L16.334139,9.66170962 Z" id="Path" fill="#000000" fill-rule="nonzero"></path>
        </g>
    </g>
</svg>